{
    "asset" : {
        "generator" : "Khronos glTF Blender I/O v1.6.16",
        "version" : "2.0"
    },
  "extensions": {
    "KHR_materials_variants": {
      "variants": [
          {"name": "0"},
          {"name": "1" },
          {"name": "2" },
          {"name": "3" }
        ]
    }
  },
    "extensionsUsed" : [
        "KHR_materials_variants"
    ],
    "scene" : 0,
    "scenes" : [
        {
            "name" : "Scene",
            "nodes" : [
                9
            ]
        }
    ],
    "nodes" : [
        {
            "mesh" : 0,
            "name" : "bund_A-300-45\ufffd"
        },
        {
            "mesh" : 1,
            "name" : "Filterkasse_med_pose_4500"
        },
        {
            "mesh" : 2,
            "name" : "Fladt_l#A300"
        },
        {
            "mesh" : 3,
            "name" : "insp_luge_AGRO"
        },
        {
            "mesh" : 4,
            "name" : "Mellem_plade_venstre_45\ufffd_300_Agro_skillerum_h#jre"
        },
        {
            "mesh" : 5,
            "name" : "Mellem_plade_venstre_45\ufffd_300_Agro_Skillerum_venstre"
        },
        {
            "mesh" : 6,
            "name" : "R\ufffdr_4500"
        },
        {
            "mesh" : 7,
            "name" : "Sektion_630_A-300-skillerum"
        },
        {
            "mesh" : 8,
            "name" : "Sektion_630_A-300-skillerum_m._hul"
        },
        {
            "children" : [
                0,
                1,
                2,
                3,
                4,
                5,
                6,
                7,
                8
            ],
            "name" : "entity_1",
            "scale" : [
                0.039538607001304626,
                0.039538607001304626,
                0.039538607001304626
            ]
        }
    ],
    "materials" : [
        {
            "doubleSided" : true,
            "name" : "Metal",
            "pbrMetallicRoughness" : {
                "baseColorFactor" : [
                    0.18326106667518616,
                    0.18326106667518616,
                    0.18326106667518616,
                    1
                ],
                "roughnessFactor" : 0.30000001192092896
            }
        },
        {
            "doubleSided" : true,
            "name" : "def",
            "pbrMetallicRoughness" : {
                "baseColorFactor" : [
                    0.800000011920929,
                    0.800000011920929,
                    0.800000011920929,
                    1
                ],
                "roughnessFactor" : 0.5
            }
        },
        {
            "doubleSided" : true,
            "name" : "1b",
            "pbrMetallicRoughness" : {
                "baseColorFactor" : [
                    0.8000000715255737,
                    0,
                    0.5729905962944031,
                    1
                ],
                "roughnessFactor" : 0.5
            }
        },
        {
            "doubleSided" : true,
            "name" : "2b",
            "pbrMetallicRoughness" : {
                "baseColorFactor" : [
                    0.004240586422383785,
                    0,
                    0.8000000715255737,
                    1
                ],
                "roughnessFactor" : 0.5
            }
        },
        {
            "doubleSided" : true,
            "name" : "3b",
            "pbrMetallicRoughness" : {
                "baseColorFactor" : [
                    0,
                    0.8000000715255737,
                    0.7749384045600891,
                    1
                ],
                "roughnessFactor" : 0.5
            }
        },
        {
            "doubleSided" : true,
            "name" : "1a",
            "pbrMetallicRoughness" : {
                "baseColorFactor" : [
                    0,
                    0.8000000715255737,
                    0.011894740164279938,
                    1
                ],
                "roughnessFactor" : 0.5
            }
        },
        {
            "doubleSided" : true,
            "name" : "2a",
            "pbrMetallicRoughness" : {
                "baseColorFactor" : [
                    0.8000000715255737,
                    0.7579135894775391,
                    0,
                    1
                ],
                "roughnessFactor" : 0.5
            }
        },
        {
            "doubleSided" : true,
            "name" : "3a",
            "pbrMetallicRoughness" : {
                "baseColorFactor" : [
                    0.8000000715255737,
                    0,
                    0.002200702205300331,
                    1
                ],
                "roughnessFactor" : 0.5
            }
        },
        {
            "name" : "insp_luge_AGRO",
            "pbrMetallicRoughness" : {
                "metallicFactor" : 0.5,
                "roughnessFactor" : 0.5
            }
        },
        {
            "doubleSided" : true,
            "name" : "Material.007",
            "pbrMetallicRoughness" : {
                "baseColorFactor" : [
                    0.800000011920929,
                    0.800000011920929,
                    0.800000011920929,
                    1
                ],
                "metallicFactor" : 0,
                "roughnessFactor" : 0.5
            }
        }
    ],
    "meshes" : [
        {
            "name" : "Mesh_0",
            "primitives" : [
                {
                    "attributes" : {
                        "POSITION" : 0,
                        "NORMAL" : 1
                    },
                    "indices" : 2,
                    "material" : 0
                }
            ]
        },
        {
            "name" : "Mesh_1",
            "primitives" : [
                {
                    "attributes" : {
                        "POSITION" : 3,
                        "NORMAL" : 4
                    },
                    "extensions" : {
                        "KHR_materials_variants" : {
                            "mappings" : [
                                {
                                    "material" : 1,
                                    "variants" : [
                                        0
                                    ]
                                },
                                {
                                    "material" : 2,
                                    "variants" : [
                                        1
                                    ]
                                },
                                {
                                    "material" : 3,
                                    "variants" : [
                                        2
                                    ]
                                },
                                {
                                    "material" : 4,
                                    "variants" : [
                                        3
                                    ]
                                }
                            ]
                        }
                    },
                    "indices" : 5,
                    "material" : 2
                }
            ]
        },
        {
            "name" : "Mesh_2",
            "primitives" : [
                {
                    "attributes" : {
                        "POSITION" : 6,
                        "NORMAL" : 7
                    },
                    "extensions" : {
                        "KHR_materials_variants" : {
                            "mappings" : [
                                {
                                    "material" : 1,
                                    "variants" : [
                                        0
                                    ]
                                },
                                {
                                    "material" : 5,
                                    "variants" : [
                                        1
                                    ]
                                },
                                {
                                    "material" : 6,
                                    "variants" : [
                                        2
                                    ]
                                },
                                {
                                    "material" : 7,
                                    "variants" : [
                                        3
                                    ]
                                }
                            ]
                        }
                    },
                    "indices" : 8,
                    "material" : 5
                }
            ]
        },
        {
            "name" : "Mesh_3",
            "primitives" : [
                {
                    "attributes" : {
                        "POSITION" : 9,
                        "NORMAL" : 10
                    },
                    "indices" : 11,
                    "material" : 8
                }
            ]
        },
        {
            "name" : "Mesh_4",
            "primitives" : [
                {
                    "attributes" : {
                        "POSITION" : 12,
                        "NORMAL" : 13
                    },
                    "indices" : 14,
                    "material" : 9
                }
            ]
        },
        {
            "name" : "Mesh_5",
            "primitives" : [
                {
                    "attributes" : {
                        "POSITION" : 15,
                        "NORMAL" : 16
                    },
                    "indices" : 14,
                    "material" : 9
                }
            ]
        },
        {
            "name" : "Mesh_6",
            "primitives" : [
                {
                    "attributes" : {
                        "POSITION" : 17,
                        "NORMAL" : 18
                    },
                    "extensions" : {
                        "KHR_materials_variants" : {
                            "mappings" : [
                                {
                                    "material" : 1,
                                    "variants" : [
                                        0
                                    ]
                                },
                                {
                                    "material" : 2,
                                    "variants" : [
                                        1
                                    ]
                                },
                                {
                                    "material" : 3,
                                    "variants" : [
                                        2
                                    ]
                                },
                                {
                                    "material" : 4,
                                    "variants" : [
                                        3
                                    ]
                                }
                            ]
                        }
                    },
                    "indices" : 19,
                    "material" : 2
                }
            ]
        },
        {
            "name" : "Mesh_7",
            "primitives" : [
                {
                    "attributes" : {
                        "POSITION" : 20,
                        "NORMAL" : 21
                    },
                    "extensions" : {
                        "KHR_materials_variants" : {
                            "mappings" : [
                                {
                                    "material" : 1,
                                    "variants" : [
                                        0
                                    ]
                                },
                                {
                                    "material" : 5,
                                    "variants" : [
                                        1
                                    ]
                                },
                                {
                                    "material" : 6,
                                    "variants" : [
                                        2
                                    ]
                                },
                                {
                                    "material" : 7,
                                    "variants" : [
                                        3
                                    ]
                                }
                            ]
                        }
                    },
                    "indices" : 22,
                    "material" : 5
                }
            ]
        },
        {
            "name" : "Mesh_8",
            "primitives" : [
                {
                    "attributes" : {
                        "POSITION" : 23,
                        "NORMAL" : 24
                    },
                    "extensions" : {
                        "KHR_materials_variants" : {
                            "mappings" : [
                                {
                                    "material" : 1,
                                    "variants" : [
                                        0
                                    ]
                                },
                                {
                                    "material" : 5,
                                    "variants" : [
                                        1
                                    ]
                                },
                                {
                                    "material" : 6,
                                    "variants" : [
                                        2
                                    ]
                                },
                                {
                                    "material" : 7,
                                    "variants" : [
                                        3
                                    ]
                                }
                            ]
                        }
                    },
                    "indices" : 25,
                    "material" : 5
                }
            ]
        }
    ],
    "accessors" : [
        {
            "bufferView" : 0,
            "componentType" : 5126,
            "count" : 4260,
            "max" : [
                1500,
                0,
                1500
            ],
            "min" : [
                -1500,
                -1603,
                -1500
            ],
            "type" : "VEC3"
        },
        {
            "bufferView" : 1,
            "componentType" : 5126,
            "count" : 4260,
            "type" : "VEC3"
        },
        {
            "bufferView" : 2,
            "componentType" : 5123,
            "count" : 4260,
            "type" : "SCALAR"
        },
        {
            "bufferView" : 3,
            "componentType" : 5126,
            "count" : 3096,
            "max" : [
                1308.5,
                3266.5,
                1941.5
            ],
            "min" : [
                -1308.5,
                -1348.5,
                1106.5
            ],
            "type" : "VEC3"
        },
        {
            "bufferView" : 4,
            "componentType" : 5126,
            "count" : 3096,
            "type" : "VEC3"
        },
        {
            "bufferView" : 5,
            "componentType" : 5123,
            "count" : 3096,
            "type" : "SCALAR"
        },
        {
            "bufferView" : 6,
            "componentType" : 5126,
            "count" : 49188,
            "max" : [
                1500,
                3210,
                1500
            ],
            "min" : [
                -1500,
                3150,
                -1500
            ],
            "type" : "VEC3"
        },
        {
            "bufferView" : 7,
            "componentType" : 5126,
            "count" : 49188,
            "type" : "VEC3"
        },
        {
            "bufferView" : 8,
            "componentType" : 5123,
            "count" : 49188,
            "type" : "SCALAR"
        },
        {
            "bufferView" : 9,
            "componentType" : 5126,
            "count" : 360,
            "max" : [
                1435.5,
                623,
                1505.5
            ],
            "min" : [
                -1435.5,
                7,
                1451.5
            ],
            "type" : "VEC3"
        },
        {
            "bufferView" : 10,
            "componentType" : 5126,
            "count" : 360,
            "type" : "VEC3"
        },
        {
            "bufferView" : 11,
            "componentType" : 5123,
            "count" : 360,
            "type" : "SCALAR"
        },
        {
            "bufferView" : 12,
            "componentType" : 5126,
            "count" : 528,
            "max" : [
                1035.646240234375,
                -419.88226318359375,
                1035.646240234375
            ],
            "min" : [
                -1035.646240234375,
                -540.2705688476562,
                -1035.646240234375
            ],
            "type" : "VEC3"
        },
        {
            "bufferView" : 13,
            "componentType" : 5126,
            "count" : 528,
            "type" : "VEC3"
        },
        {
            "bufferView" : 14,
            "componentType" : 5123,
            "count" : 528,
            "type" : "SCALAR"
        },
        {
            "bufferView" : 15,
            "componentType" : 5126,
            "count" : 528,
            "max" : [
                1035.646240234375,
                -419.88226318359375,
                1035.646240234375
            ],
            "min" : [
                -1035.646240234375,
                -540.2705688476562,
                -1035.646240234375
            ],
            "type" : "VEC3"
        },
        {
            "bufferView" : 16,
            "componentType" : 5126,
            "count" : 528,
            "type" : "VEC3"
        },
        {
            "bufferView" : 17,
            "componentType" : 5126,
            "count" : 51480,
            "max" : [
                799.5,
                3133,
                1639.699951171875
            ],
            "min" : [
                -799.5,
                -1576.199951171875,
                1451.5
            ],
            "type" : "VEC3"
        },
        {
            "bufferView" : 18,
            "componentType" : 5126,
            "count" : 51480,
            "type" : "VEC3"
        },
        {
            "bufferView" : 19,
            "componentType" : 5123,
            "count" : 51480,
            "type" : "SCALAR"
        },
        {
            "bufferView" : 20,
            "componentType" : 5126,
            "count" : 6048,
            "max" : [
                1500,
                3150,
                1500
            ],
            "min" : [
                -1500,
                630,
                -1500
            ],
            "type" : "VEC3"
        },
        {
            "bufferView" : 21,
            "componentType" : 5126,
            "count" : 6048,
            "type" : "VEC3"
        },
        {
            "bufferView" : 22,
            "componentType" : 5123,
            "count" : 6048,
            "type" : "SCALAR"
        },
        {
            "bufferView" : 23,
            "componentType" : 5126,
            "count" : 4560,
            "max" : [
                1500,
                630,
                1500
            ],
            "min" : [
                -1500,
                0,
                -1500
            ],
            "type" : "VEC3"
        },
        {
            "bufferView" : 24,
            "componentType" : 5126,
            "count" : 4560,
            "type" : "VEC3"
        },
        {
            "bufferView" : 25,
            "componentType" : 5123,
            "count" : 4560,
            "type" : "SCALAR"
        }
    ],
    "bufferViews" : [
        {
            "buffer" : 0,
            "byteLength" : 51120,
            "byteOffset" : 0
        },
        {
            "buffer" : 0,
            "byteLength" : 51120,
            "byteOffset" : 51120
        },
        {
            "buffer" : 0,
            "byteLength" : 8520,
            "byteOffset" : 102240
        },
        {
            "buffer" : 0,
            "byteLength" : 37152,
            "byteOffset" : 110760
        },
        {
            "buffer" : 0,
            "byteLength" : 37152,
            "byteOffset" : 147912
        },
        {
            "buffer" : 0,
            "byteLength" : 6192,
            "byteOffset" : 185064
        },
        {
            "buffer" : 0,
            "byteLength" : 590256,
            "byteOffset" : 191256
        },
        {
            "buffer" : 0,
            "byteLength" : 590256,
            "byteOffset" : 781512
        },
        {
            "buffer" : 0,
            "byteLength" : 98376,
            "byteOffset" : 1371768
        },
        {
            "buffer" : 0,
            "byteLength" : 4320,
            "byteOffset" : 1470144
        },
        {
            "buffer" : 0,
            "byteLength" : 4320,
            "byteOffset" : 1474464
        },
        {
            "buffer" : 0,
            "byteLength" : 720,
            "byteOffset" : 1478784
        },
        {
            "buffer" : 0,
            "byteLength" : 6336,
            "byteOffset" : 1479504
        },
        {
            "buffer" : 0,
            "byteLength" : 6336,
            "byteOffset" : 1485840
        },
        {
            "buffer" : 0,
            "byteLength" : 1056,
            "byteOffset" : 1492176
        },
        {
            "buffer" : 0,
            "byteLength" : 6336,
            "byteOffset" : 1493232
        },
        {
            "buffer" : 0,
            "byteLength" : 6336,
            "byteOffset" : 1499568
        },
        {
            "buffer" : 0,
            "byteLength" : 617760,
            "byteOffset" : 1505904
        },
        {
            "buffer" : 0,
            "byteLength" : 617760,
            "byteOffset" : 2123664
        },
        {
            "buffer" : 0,
            "byteLength" : 102960,
            "byteOffset" : 2741424
        },
        {
            "buffer" : 0,
            "byteLength" : 72576,
            "byteOffset" : 2844384
        },
        {
            "buffer" : 0,
            "byteLength" : 72576,
            "byteOffset" : 2916960
        },
        {
            "buffer" : 0,
            "byteLength" : 12096,
            "byteOffset" : 2989536
        },
        {
            "buffer" : 0,
            "byteLength" : 54720,
            "byteOffset" : 3001632
        },
        {
            "buffer" : 0,
            "byteLength" : 54720,
            "byteOffset" : 3056352
        },
        {
            "buffer" : 0,
            "byteLength" : 9120,
            "byteOffset" : 3111072
        }
    ],
    "buffers" : [
        {
            "byteLength" : 3120192,
            "uri" : "data:application/octet-stream;base64,"
        }
    ]
}
